ffmpeg started on 2025-05-12 at 14:29:24
Report written to "D:\Convert\FFMetrics\reports\psnr_report-6.txt"
Log level: 32
Command line:
ffmpeg -hide_banner -nostdin -i "G:\\\xc0\xed\xe8\xec\xe5\\\xce\xed\xe3\xee\xe8\xed\xe3\xe8\\!_35_\xcb\xe5\xf2\xee_2024\\DreamCast\\\xc2\xe8\xf2\xf3\xe1\xe5\xf0 - \xdf \xf1\xf2\xe0\xeb\xe0 \xef\xee\xef\xf3\xeb\xff\xf0\xed\xee\xe9 \xef\xee\xf1\xeb\xe5 \xf2\xee\xe3\xee, \xea\xe0\xea \xe7\xe0\xe1\xfb\xeb\xe0 \xe2\xfb\xea\xeb\xfe\xf7\xe8\xf2\xfc \xf1\xf2\xf0\xe8\xec\\[DC] Vden - 12_Telegram_HEVC.mkv" -i "G:\\\xc0\xed\xe8\xec\xe5\\\xce\xed\xe3\xee\xe8\xed\xe3\xe8\\!_35_\xcb\xe5\xf2\xee_2024\\DreamCast\\\xc2\xe8\xf2\xf3\xe1\xe5\xf0 - \xdf \xf1\xf2\xe0\xeb\xe0 \xef\xee\xef\xf3\xeb\xff\xf0\xed\xee\xe9 \xef\xee\xf1\xeb\xe5 \xf2\xee\xe3\xee, \xea\xe0\xea \xe7\xe0\xe1\xfb\xeb\xe0 \xe2\xfb\xea\xeb\xfe\xf7\xe8\xf2\xfc \xf1\xf2\xf0\xe8\xec\\[DC] Vden - 12_Telegram.mp4" -lavfi "[0:v]settb=AVTB,setpts=PTS-STARTPTS,format=pix_fmts=yuv420p10,fps=24000/1001,scale=1920:1080:flags=bicubic[main];[1:v]settb=AVTB,setpts=PTS-STARTPTS,format=pix_fmts=yuv420p,fps=24000/1001,scale=1920:1080:flags=bicubic[ref];[main][ref]psnr=eof_action=endall:stats_file='D\\:/Convert/FFMetrics/logs/psnr_logfile-6.txt'" -f null -
Input #0, matroska,webm, from 'G:\Аниме\Онгоинги\!_35_Лето_2024\DreamCast\Витубер - Я стала популярной после того, как забыла выключить стрим\[DC] Vden - 12_Telegram_HEVC.mkv':
  Metadata:
    COMPATIBLE_BRANDS: isomiso2avc1mp41
    MAJOR_BRAND     : isom
    MINOR_VERSION   : 512
    ENCODER         : Lavf61.7.100
  Duration: 00:23:46.60, start: -0.021000, bitrate: 1590 kb/s
  Stream #0:0: Video: hevc (Main 10), yuv420p10le(tv, bt709, progressive), 1920x1080 [SAR 1:1 DAR 16:9], 23.98 fps, 23.98 tbr, 1k tbn (default)
      Metadata:
        HANDLER_NAME    : VideoHandler
        VENDOR_ID       : [0][0][0][0]
        ENCODER         : Lavc61.19.100 libx265
        BPS             : 1394008
        DURATION        : 00:23:46.424708333
        NUMBER_OF_FRAMES: 34200
        NUMBER_OF_BYTES : 248555883
        _STATISTICS_WRITING_APP: mkvpropedit v66.0.0 ('Josie') 64-bit
        _STATISTICS_WRITING_DATE_UTC: 2025-05-07 07:55:24
        _STATISTICS_TAGS: BPS DURATION NUMBER_OF_FRAMES NUMBER_OF_BYTES
  Stream #0:1: Audio: aac (LC), 48000 Hz, stereo, fltp (default)
      Metadata:
        HANDLER_NAME    : SoundHandler
        VENDOR_ID       : [0][0][0][0]
        ENCODER         : Lavc61.19.100 aac
        BPS             : 192392
        DURATION        : 00:23:46.602000000
        NUMBER_OF_FRAMES: 66873
        NUMBER_OF_BYTES : 34308501
        _STATISTICS_WRITING_APP: mkvpropedit v66.0.0 ('Josie') 64-bit
        _STATISTICS_WRITING_DATE_UTC: 2025-05-07 07:55:24
        _STATISTICS_TAGS: BPS DURATION NUMBER_OF_FRAMES NUMBER_OF_BYTES
Input #1, mov,mp4,m4a,3gp,3g2,mj2, from 'G:\Аниме\Онгоинги\!_35_Лето_2024\DreamCast\Витубер - Я стала популярной после того, как забыла выключить стрим\[DC] Vden - 12_Telegram.mp4':
  Metadata:
    major_brand     : isom
    minor_version   : 512
    compatible_brands: isomiso2avc1mp41
    encoder         : Lavf61.1.100
  Duration: 00:23:46.54, start: 0.000000, bitrate: 3743 kb/s
  Stream #1:0[0x1](und): Video: h264 (High) (avc1 / 0x31637661), yuv420p(tv, bt709, progressive), 1920x1080 [SAR 1:1 DAR 16:9], 3596 kb/s, 23.98 fps, 23.98 tbr, 24k tbn (default)
      Metadata:
        handler_name    : VideoHandler
        vendor_id       : [0][0][0][0]
        encoder         : Lavc61.3.100 h264_qsv
  Stream #1:1[0x2](und): Audio: aac (HE-AACv2) (mp4a / 0x6134706D), 48000 Hz, stereo, fltp, 144 kb/s (default)
      Metadata:
        handler_name    : SoundHandler
        vendor_id       : [0][0][0][0]
Stream mapping:
  Stream #0:0 (hevc) -> settb:default
  Stream #1:0 (h264) -> settb:default
  psnr:default -> Stream #0:0 (wrapped_avframe)
  Stream #0:1 -> #0:1 (aac (native) -> pcm_s16le (native))
Output #0, null, to 'pipe:':
  Metadata:
    COMPATIBLE_BRANDS: isomiso2avc1mp41
    MAJOR_BRAND     : isom
    MINOR_VERSION   : 512
    encoder         : Lavf61.7.100
  Stream #0:0: Video: wrapped_avframe, yuv420p10le(tv, bt709, progressive), 1920x1080 [SAR 1:1 DAR 16:9], q=2-31, 200 kb/s, 23.98 fps, 23.98 tbn
      Metadata:
        encoder         : Lavc61.19.100 wrapped_avframe
  Stream #0:1: Audio: pcm_s16le, 48000 Hz, stereo, s16, 1536 kb/s (default)
      Metadata:
        HANDLER_NAME    : SoundHandler
        VENDOR_ID       : [0][0][0][0]
        _STATISTICS_TAGS: BPS DURATION NUMBER_OF_FRAMES NUMBER_OF_BYTES
        BPS             : 192392
        DURATION        : 00:23:46.602000000
        NUMBER_OF_FRAMES: 66873
        NUMBER_OF_BYTES : 34308501
        _STATISTICS_WRITING_APP: mkvpropedit v66.0.0 ('Josie') 64-bit
        _STATISTICS_WRITING_DATE_UTC: 2025-05-07 07:55:24
        encoder         : Lavc61.19.100 pcm_s16le
frame=  170 fps=0.0 q=-0.0 size=N/A time=00:00:07.09 bitrate=N/A speed=13.7x    frame=  371 fps=356 q=-0.0 size=N/A time=00:00:15.47 bitrate=N/A speed=14.8x    frame=  611 fps=394 q=-0.0 size=N/A time=00:00:25.48 bitrate=N/A speed=16.5x    frame=  878 fps=423 q=-0.0 size=N/A time=00:00:36.61 bitrate=N/A speed=17.7x    frame= 1139 fps=439 q=-0.0 size=N/A time=00:00:47.50 bitrate=N/A speed=18.3x    frame= 1400 fps=449 q=-0.0 size=N/A time=00:00:58.39 bitrate=N/A speed=18.7x    frame= 1647 fps=454 q=-0.0 size=N/A time=00:01:08.69 bitrate=N/A speed=18.9x    frame= 1908 fps=460 q=-0.0 size=N/A time=00:01:19.57 bitrate=N/A speed=19.2x    frame= 2150 fps=461 q=-0.0 size=N/A time=00:01:29.67 bitrate=N/A speed=19.2x    frame= 2402 fps=463 q=-0.0 size=N/A time=00:01:40.18 bitrate=N/A speed=19.3x    frame= 2644 fps=465 q=-0.0 size=N/A time=00:01:50.27 bitrate=N/A speed=19.4x    frame= 2910 fps=468 q=-0.0 size=N/A time=00:02:01.37 bitrate=N/A speed=19.5x    frame= 3161 fps=470 q=-0.0 size=N/A time=00:02:11.84 bitrate=N/A speed=19.6x    frame= 3431 fps=474 q=-0.0 size=N/A time=00:02:23.10 bitrate=N/A speed=19.8x    frame= 3649 fps=470 q=-0.0 size=N/A time=00:02:32.19 bitrate=N/A speed=19.6x    frame= 3845 fps=465 q=-0.0 size=N/A time=00:02:40.36 bitrate=N/A speed=19.4x    frame= 4038 fps=460 q=-0.0 size=N/A time=00:02:48.41 bitrate=N/A speed=19.2x    frame= 4251 fps=457 q=-0.0 size=N/A time=00:02:57.30 bitrate=N/A speed=  19x    frame= 4447 fps=453 q=-0.0 size=N/A time=00:03:05.47 bitrate=N/A speed=18.9x    frame= 4655 fps=451 q=-0.0 size=N/A time=00:03:14.15 bitrate=N/A speed=18.8x    frame= 4830 fps=445 q=-0.0 size=N/A time=00:03:21.45 bitrate=N/A speed=18.6x    frame= 4995 fps=440 q=-0.0 size=N/A time=00:03:28.33 bitrate=N/A speed=18.3x    frame= 5162 fps=434 q=-0.0 size=N/A time=00:03:35.29 bitrate=N/A speed=18.1x    frame= 5325 fps=430 q=-0.0 size=N/A time=00:03:42.09 bitrate=N/A speed=17.9x    frame= 5500 fps=426 q=-0.0 size=N/A time=00:03:49.39 bitrate=N/A speed=17.8x    frame= 5682 fps=423 q=-0.0 size=N/A time=00:03:56.98 bitrate=N/A speed=17.7x    frame= 5929 fps=425 q=-0.0 size=N/A time=00:04:07.28 bitrate=N/A speed=17.7x    frame= 6117 fps=423 q=-0.0 size=N/A time=00:04:15.12 bitrate=N/A speed=17.6x    frame= 6374 fps=426 q=-0.0 size=N/A time=00:04:25.84 bitrate=N/A speed=17.7x    frame= 6627 fps=428 q=-0.0 size=N/A time=00:04:36.40 bitrate=N/A speed=17.8x    frame= 6884 fps=430 q=-0.0 size=N/A time=00:04:47.12 bitrate=N/A speed=17.9x    frame= 7144 fps=432 q=-0.0 size=N/A time=00:04:57.96 bitrate=N/A speed=  18x    frame= 7400 fps=434 q=-0.0 size=N/A time=00:05:08.64 bitrate=N/A speed=18.1x    frame= 7663 fps=437 q=-0.0 size=N/A time=00:05:19.61 bitrate=N/A speed=18.2x    frame= 7902 fps=437 q=-0.0 size=N/A time=00:05:29.57 bitrate=N/A speed=18.2x    frame= 8158 fps=439 q=-0.0 size=N/A time=00:05:40.25 bitrate=N/A speed=18.3x    frame= 8415 fps=440 q=-0.0 size=N/A time=00:05:50.97 bitrate=N/A speed=18.4x    frame= 8673 fps=442 q=-0.0 size=N/A time=00:06:01.73 bitrate=N/A speed=18.4x    frame= 8932 fps=443 q=-0.0 size=N/A time=00:06:12.53 bitrate=N/A speed=18.5x    frame= 9171 fps=444 q=-0.0 size=N/A time=00:06:22.50 bitrate=N/A speed=18.5x    frame= 9374 fps=443 q=-0.0 size=N/A time=00:06:30.97 bitrate=N/A speed=18.5x    frame= 9600 fps=443 q=-0.0 size=N/A time=00:06:40.40 bitrate=N/A speed=18.5x    frame= 9851 fps=444 q=-0.0 size=N/A time=00:06:50.86 bitrate=N/A speed=18.5x    frame=10118 fps=446 q=-0.0 size=N/A time=00:07:02.00 bitrate=N/A speed=18.6x    frame=10382 fps=447 q=-0.0 size=N/A time=00:07:13.01 bitrate=N/A speed=18.6x    frame=10645 fps=448 q=-0.0 size=N/A time=00:07:23.98 bitrate=N/A speed=18.7x    frame=10898 fps=449 q=-0.0 size=N/A time=00:07:34.53 bitrate=N/A speed=18.7x    frame=11158 fps=450 q=-0.0 size=N/A time=00:07:45.38 bitrate=N/A speed=18.8x    frame=11416 fps=451 q=-0.0 size=N/A time=00:07:56.14 bitrate=N/A speed=18.8x    frame=11677 fps=453 q=-0.0 size=N/A time=00:08:07.02 bitrate=N/A speed=18.9x    frame=11912 fps=453 q=-0.0 size=N/A time=00:08:16.82 bitrate=N/A speed=18.9x    frame=12162 fps=453 q=-0.0 size=N/A time=00:08:27.25 bitrate=N/A speed=18.9x    frame=12380 fps=453 q=-0.0 size=N/A time=00:08:36.34 bitrate=N/A speed=18.9x    frame=12637 fps=453 q=-0.0 size=N/A time=00:08:47.06 bitrate=N/A speed=18.9x    frame=12836 fps=452 q=-0.0 size=N/A time=00:08:55.36 bitrate=N/A speed=18.9x    frame=13084 fps=453 q=-0.0 size=N/A time=00:09:05.71 bitrate=N/A speed=18.9x    frame=13347 fps=454 q=-0.0 size=N/A time=00:09:16.68 bitrate=N/A speed=18.9x    frame=13536 fps=452 q=-0.0 size=N/A time=00:09:24.56 bitrate=N/A speed=18.9x    frame=13769 fps=452 q=-0.0 size=N/A time=00:09:34.28 bitrate=N/A speed=18.9x    frame=14020 fps=453 q=-0.0 size=N/A time=00:09:44.75 bitrate=N/A speed=18.9x    frame=14277 fps=453 q=-0.0 size=N/A time=00:09:55.46 bitrate=N/A speed=18.9x    frame=14518 fps=454 q=-0.0 size=N/A time=00:10:05.52 bitrate=N/A speed=18.9x    frame=14757 fps=454 q=-0.0 size=N/A time=00:10:15.48 bitrate=N/A speed=18.9x    frame=15000 fps=454 q=-0.0 size=N/A time=00:10:25.62 bitrate=N/A speed=18.9x    frame=15243 fps=454 q=-0.0 size=N/A time=00:10:35.76 bitrate=N/A speed=18.9x    frame=15494 fps=455 q=-0.0 size=N/A time=00:10:46.22 bitrate=N/A speed=  19x    frame=15750 fps=455 q=-0.0 size=N/A time=00:10:56.90 bitrate=N/A speed=  19x    frame=16014 fps=456 q=-0.0 size=N/A time=00:11:07.91 bitrate=N/A speed=  19x    frame=16204 fps=455 q=-0.0 size=N/A time=00:11:15.84 bitrate=N/A speed=  19x    frame=16416 fps=454 q=-0.0 size=N/A time=00:11:24.68 bitrate=N/A speed=  19x    frame=16656 fps=454 q=-0.0 size=N/A time=00:11:34.69 bitrate=N/A speed=  19x    frame=16901 fps=455 q=-0.0 size=N/A time=00:11:44.91 bitrate=N/A speed=  19x    frame=17184 fps=456 q=-0.0 size=N/A time=00:11:56.71 bitrate=N/A speed=  19x    frame=17451 fps=457 q=-0.0 size=N/A time=00:12:07.85 bitrate=N/A speed=19.1x    frame=17729 fps=458 q=-0.0 size=N/A time=00:12:19.44 bitrate=N/A speed=19.1x    frame=18008 fps=459 q=-0.0 size=N/A time=00:12:31.08 bitrate=N/A speed=19.1x    frame=18266 fps=460 q=-0.0 size=N/A time=00:12:41.84 bitrate=N/A speed=19.2x    frame=18512 fps=460 q=-0.0 size=N/A time=00:12:52.10 bitrate=N/A speed=19.2x    frame=18704 fps=459 q=-0.0 size=N/A time=00:13:00.11 bitrate=N/A speed=19.1x    frame=18911 fps=458 q=-0.0 size=N/A time=00:13:08.74 bitrate=N/A speed=19.1x    frame=19090 fps=457 q=-0.0 size=N/A time=00:13:16.21 bitrate=N/A speed=  19x    frame=19284 fps=456 q=-0.0 size=N/A time=00:13:24.30 bitrate=N/A speed=  19x    frame=19492 fps=455 q=-0.0 size=N/A time=00:13:32.97 bitrate=N/A speed=  19x    frame=19697 fps=454 q=-0.0 size=N/A time=00:13:41.52 bitrate=N/A speed=  19x    frame=19898 fps=454 q=-0.0 size=N/A time=00:13:49.91 bitrate=N/A speed=18.9x    frame=20121 fps=453 q=-0.0 size=N/A time=00:13:59.21 bitrate=N/A speed=18.9x    frame=20318 fps=452 q=-0.0 size=N/A time=00:14:07.42 bitrate=N/A speed=18.9x    frame=20520 fps=452 q=-0.0 size=N/A time=00:14:15.85 bitrate=N/A speed=18.8x    frame=20733 fps=451 q=-0.0 size=N/A time=00:14:24.73 bitrate=N/A speed=18.8x    frame=20984 fps=452 q=-0.0 size=N/A time=00:14:35.20 bitrate=N/A speed=18.8x    frame=21276 fps=453 q=-0.0 size=N/A time=00:14:47.38 bitrate=N/A speed=18.9x    frame=21552 fps=454 q=-0.0 size=N/A time=00:14:58.89 bitrate=N/A speed=18.9x    frame=21815 fps=455 q=-0.0 size=N/A time=00:15:09.86 bitrate=N/A speed=  19x    frame=22078 fps=455 q=-0.0 size=N/A time=00:15:20.83 bitrate=N/A speed=  19x    frame=22347 fps=456 q=-0.0 size=N/A time=00:15:32.05 bitrate=N/A speed=  19x    frame=22563 fps=455 q=-0.0 size=N/A time=00:15:41.06 bitrate=N/A speed=  19x    frame=22810 fps=456 q=-0.0 size=N/A time=00:15:51.36 bitrate=N/A speed=  19x    frame=23041 fps=456 q=-0.0 size=N/A time=00:16:01.00 bitrate=N/A speed=  19x    frame=23296 fps=456 q=-0.0 size=N/A time=00:16:11.63 bitrate=N/A speed=  19x    frame=23559 fps=457 q=-0.0 size=N/A time=00:16:22.60 bitrate=N/A speed=  19x    frame=23811 fps=457 q=-0.0 size=N/A time=00:16:33.11 bitrate=N/A speed=19.1x    frame=24057 fps=457 q=-0.0 size=N/A time=00:16:43.37 bitrate=N/A speed=19.1x    frame=24289 fps=457 q=-0.0 size=N/A time=00:16:53.05 bitrate=N/A speed=19.1x    frame=24542 fps=457 q=-0.0 size=N/A time=00:17:03.60 bitrate=N/A speed=19.1x    frame=24806 fps=458 q=-0.0 size=N/A time=00:17:14.61 bitrate=N/A speed=19.1x    frame=25065 fps=458 q=-0.0 size=N/A time=00:17:25.41 bitrate=N/A speed=19.1x    frame=25309 fps=458 q=-0.0 size=N/A time=00:17:35.59 bitrate=N/A speed=19.1x    frame=25463 fps=457 q=-0.0 size=N/A time=00:17:42.01 bitrate=N/A speed=19.1x    frame=25644 fps=456 q=-0.0 size=N/A time=00:17:49.56 bitrate=N/A speed=  19x    frame=25822 fps=455 q=-0.0 size=N/A time=00:17:56.99 bitrate=N/A speed=  19x    frame=25986 fps=454 q=-0.0 size=N/A time=00:18:03.83 bitrate=N/A speed=18.9x    frame=26149 fps=453 q=-0.0 size=N/A time=00:18:10.63 bitrate=N/A speed=18.9x    frame=26334 fps=452 q=-0.0 size=N/A time=00:18:18.34 bitrate=N/A speed=18.8x    frame=26521 fps=451 q=-0.0 size=N/A time=00:18:26.14 bitrate=N/A speed=18.8x    frame=26698 fps=450 q=-0.0 size=N/A time=00:18:33.52 bitrate=N/A speed=18.8x    frame=26865 fps=449 q=-0.0 size=N/A time=00:18:40.49 bitrate=N/A speed=18.7x    frame=27044 fps=448 q=-0.0 size=N/A time=00:18:47.96 bitrate=N/A speed=18.7x    frame=27207 fps=447 q=-0.0 size=N/A time=00:18:54.75 bitrate=N/A speed=18.6x    frame=27379 fps=446 q=-0.0 size=N/A time=00:19:01.93 bitrate=N/A speed=18.6x    frame=27576 fps=445 q=-0.0 size=N/A time=00:19:10.14 bitrate=N/A speed=18.6x    frame=27799 fps=445 q=-0.0 size=N/A time=00:19:19.44 bitrate=N/A speed=18.6x    frame=28027 fps=445 q=-0.0 size=N/A time=00:19:28.95 bitrate=N/A speed=18.6x    frame=28294 fps=446 q=-0.0 size=N/A time=00:19:40.09 bitrate=N/A speed=18.6x    frame=28490 fps=445 q=-0.0 size=N/A time=00:19:48.27 bitrate=N/A speed=18.6x    frame=28633 fps=444 q=-0.0 size=N/A time=00:19:54.23 bitrate=N/A speed=18.5x    frame=28780 fps=443 q=-0.0 size=N/A time=00:20:00.36 bitrate=N/A speed=18.5x    frame=28935 fps=442 q=-0.0 size=N/A time=00:20:06.83 bitrate=N/A speed=18.4x    frame=29128 fps=441 q=-0.0 size=N/A time=00:20:14.88 bitrate=N/A speed=18.4x    frame=29382 fps=441 q=-0.0 size=N/A time=00:20:25.47 bitrate=N/A speed=18.4x    frame=29620 fps=442 q=-0.0 size=N/A time=00:20:35.40 bitrate=N/A speed=18.4x    frame=29866 fps=442 q=-0.0 size=N/A time=00:20:45.66 bitrate=N/A speed=18.4x    frame=30107 fps=442 q=-0.0 size=N/A time=00:20:55.71 bitrate=N/A speed=18.4x    frame=30349 fps=442 q=-0.0 size=N/A time=00:21:05.80 bitrate=N/A speed=18.4x    frame=30599 fps=443 q=-0.0 size=N/A time=00:21:16.23 bitrate=N/A speed=18.5x    frame=30838 fps=443 q=-0.0 size=N/A time=00:21:26.20 bitrate=N/A speed=18.5x    frame=31099 fps=443 q=-0.0 size=N/A time=00:21:37.08 bitrate=N/A speed=18.5x    frame=31296 fps=443 q=-0.0 size=N/A time=00:21:45.30 bitrate=N/A speed=18.5x    frame=31511 fps=443 q=-0.0 size=N/A time=00:21:54.27 bitrate=N/A speed=18.5x    frame=31744 fps=443 q=-0.0 size=N/A time=00:22:03.98 bitrate=N/A speed=18.5x    frame=31988 fps=443 q=-0.0 size=N/A time=00:22:14.16 bitrate=N/A speed=18.5x    frame=32219 fps=443 q=-0.0 size=N/A time=00:22:23.80 bitrate=N/A speed=18.5x    frame=32414 fps=442 q=-0.0 size=N/A time=00:22:31.93 bitrate=N/A speed=18.5x    frame=32625 fps=442 q=-0.0 size=N/A time=00:22:40.73 bitrate=N/A speed=18.4x    frame=32838 fps=442 q=-0.0 size=N/A time=00:22:49.61 bitrate=N/A speed=18.4x    frame=33068 fps=442 q=-0.0 size=N/A time=00:22:59.21 bitrate=N/A speed=18.4x    frame=33261 fps=442 q=-0.0 size=N/A time=00:23:07.26 bitrate=N/A speed=18.4x    frame=33437 fps=441 q=-0.0 size=N/A time=00:23:14.60 bitrate=N/A speed=18.4x    frame=33607 fps=440 q=-0.0 size=N/A time=00:23:21.69 bitrate=N/A speed=18.4x    frame=33783 fps=440 q=-0.0 size=N/A time=00:23:29.03 bitrate=N/A speed=18.3x    frame=33952 fps=439 q=-0.0 size=N/A time=00:23:36.08 bitrate=N/A speed=18.3x    frame=34134 fps=438 q=-0.0 size=N/A time=00:23:43.67 bitrate=N/A speed=18.3x    [Parsed_psnr_10 @ 000002cb70fc7380] PSNR y:48.218451 u:49.493353 v:49.898690 average:48.656148 min:39.901642 max:inf
[out#0/null @ 000002cb6e654e00] video:14695KiB audio:267492KiB subtitle:0KiB other streams:0KiB global headers:0KiB muxing overhead: unknown
frame=34200 fps=438 q=-0.0 Lsize=N/A time=00:23:46.42 bitrate=N/A speed=18.3x    
